<svg xmlns="http://www.w3.org/2000/svg" viewBox="0 0 512 1200" fill='#0074001f'>
    <g xmlns="http://www.w3.org/2000/svg" transform="matrix(0 1 -1 0 512 -0)">
        <!-- Generator: Adobe Illustrator 29.1.0, SVG Export Plug-In . SVG Version: 2.1.0 Build 142)  -->
        <path
            d="M1055.91,242.47v13.48h76.61c42.55,0,56.28-48.7,67.48-99.66V59.17c-11.12,21.06-17.43,50.1-23.58,78.7-9.18,42.71-19.59,91.12-43.9,91.12h-49.01c5.2-52.82,40.67-81.36,70.79-96.23l7.51-3.71v-8.38c0-83.58-42.39-92.61-60.61-92.61h-123.86c-18.22,0-60.61,9.02-60.61,92.61v8.38l7.51,3.71c30.13,14.87,65.6,43.4,70.8,96.23h-49.01c-24.32,0-34.72-48.41-43.9-91.12-11.6-53.98-23.6-109.8-67.91-109.8h-78.33v13.48c0,56.05,27.9,101.87,78.8,129.87-1.01,24.51-7.24,57.57-33.5,57.57h-123.85c-26.26,0-32.49-33.06-33.5-57.57,50.9-28,78.8-73.82,78.8-129.87v-13.48h-78.33c-44.31,0-56.31,55.82-67.91,109.8-9.18,42.71-19.59,91.12-43.9,91.12h-49.01c5.2-52.82,40.67-81.36,70.79-96.23l7.51-3.71v-8.38c0-83.58-42.39-92.61-60.61-92.61h-123.85c-18.22,0-60.61,9.02-60.61,92.61v8.38l7.51,3.71c30.13,14.87,65.6,43.4,70.8,96.23h-49.01c-24.32,0-34.72-48.41-43.9-91.12-11.6-53.98-23.6-109.8-67.91-109.8h-78.33v13.48c0,56.05,27.9,101.87,78.79,129.87-1.01,24.51-7.24,57.57-33.49,57.57h-123.85c-26.26,0-32.49-33.06-33.5-57.57,50.89-28,78.79-73.82,78.79-129.87v-13.48H44.33c-20.83,0-34.47,12.42-44.33,31.1v97.11c.93-4.24,1.86-8.5,2.77-12.74C11.69,102.05,21.79,55.03,44.33,55.03h50.73c-5.2,52.82-40.67,81.37-70.8,96.23l-7.51,3.71v8.38c0,83.58,42.39,92.6,60.61,92.6h123.85c18.22,0,60.61-9.02,60.61-92.6v-8.38l-7.51-3.71c-30.12-14.87-65.6-43.42-70.8-96.23h50.73c22.54,0,32.65,47.02,41.56,88.51,11.88,55.26,24.16,112.4,70.25,112.4h76.61v-13.48c0-56.05-27.9-101.87-78.79-129.87,1.01-24.51,7.24-57.57,33.49-57.57h123.85c26.26,0,32.49,33.06,33.5,57.57-50.9,28-78.79,73.82-78.79,129.87v13.48h76.61c46.09,0,58.37-57.14,70.25-112.4,8.92-41.49,19.02-88.51,41.56-88.51h50.73c-5.2,52.82-40.67,81.36-70.8,96.23l-7.51,3.71v8.38c0,83.58,42.39,92.6,60.61,92.6h123.85c18.22,0,60.61-9.02,60.61-92.6v-8.38l-7.51-3.71c-30.13-14.87-65.6-43.41-70.8-96.23h50.73c22.54,0,32.65,47.02,41.56,88.51,11.88,55.26,24.16,112.4,70.25,112.4h76.61v-13.48c0-56.05-27.9-101.87-78.79-129.87,1.01-24.51,7.24-57.57,33.49-57.57h123.86c26.26,0,32.49,33.06,33.5,57.57-50.9,28-78.79,73.82-78.79,129.87Z" />
        <path
            d="M1138.07,485.05c-26.26,0-32.49-33.06-33.5-57.57,50.9-28,78.8-73.82,78.8-129.87v-13.48h-76.61c-46.09,0-58.38,57.14-70.25,112.41-8.92,41.49-19.02,88.51-41.56,88.51h-50.73c5.2-52.82,40.67-81.37,70.8-96.23l7.51-3.71v-8.38c0-83.58-42.39-92.6-60.61-92.6h-123.85c-18.22,0-60.61,9.02-60.61,92.6v8.38l7.51,3.71c30.12,14.87,65.6,43.42,70.8,96.23h-50.73c-22.54,0-32.65-47.02-41.56-88.51-11.88-55.26-24.16-112.4-70.25-112.4h-76.61v13.48c0,56.05,27.9,101.87,78.79,129.87-1.01,24.51-7.24,57.57-33.49,57.57h-123.85c-26.26,0-32.49-33.06-33.5-57.57,50.9-28,78.79-73.82,78.79-129.87v-13.48h-76.61c-46.09,0-58.37,57.14-70.25,112.4-8.92,41.49-19.02,88.51-41.56,88.51h-50.73c5.2-52.82,40.67-81.36,70.8-96.23l7.51-3.71v-8.38c0-83.58-42.39-92.6-60.61-92.6h-123.85c-18.22,0-60.61,9.02-60.61,92.6v8.38l7.51,3.71c30.13,14.87,65.6,43.41,70.8,96.23h-50.73c-22.54,0-32.65-47.02-41.56-88.51-11.88-55.26-24.16-112.4-70.25-112.4H16.63v13.48c0,56.05,27.9,101.87,78.79,129.87-1.01,24.51-7.24,57.57-33.49,57.57H0v26.95h61.93c18.22,0,60.61-9.02,60.61-92.61v-8.38l-7.51-3.71c-30.13-14.87-65.6-43.4-70.8-96.23h49.01c24.32,0,34.72,48.41,43.9,91.12,11.6,53.98,23.6,109.8,67.91,109.8h78.33v-13.48c0-56.05-27.9-101.87-78.8-129.87,1.01-24.51,7.24-57.57,33.5-57.57h123.85c26.26,0,32.49,33.06,33.5,57.57-50.9,28-78.8,73.82-78.8,129.87v13.48h78.33c44.31,0,56.31-55.82,67.91-109.8,9.18-42.71,19.59-91.12,43.9-91.12h49.01c-5.2,52.82-40.67,81.36-70.79,96.23l-7.51,3.71v8.38c0,83.58,42.39,92.61,60.61,92.61h123.85c18.22,0,60.61-9.02,60.61-92.61v-8.38l-7.51-3.71c-30.13-14.87-65.6-43.4-70.8-96.23h49.01c24.32,0,34.72,48.41,43.9,91.12,11.6,53.98,23.6,109.8,67.91,109.8h78.33v-13.48c0-56.05-27.9-101.87-78.79-129.87,1.01-24.51,7.24-57.57,33.49-57.57h123.85c26.26,0,32.49,33.06,33.5,57.57-50.89,28-78.79,73.82-78.79,129.87v13.48h78.33c44.31,0,56.31-55.82,67.91-109.8,9.18-42.71,19.59-91.12,43.91-91.12h49.01c-5.2,52.82-40.67,81.36-70.8,96.23l-7.51,3.71v8.38c0,83.58,42.39,92.61,60.61,92.61h61.92v-26.95h-61.92Z" />
    </g>
</svg>